<svg xmlns="http://www.w3.org/2000/svg" width="217.71" height="51.072" viewBox="0 0 217.71 51.072"><defs><style>.a{fill:#cbaa77;}.b{fill:#fff;}</style></defs><path class="a" d="M573.377,477.16,540.45,492v32.992h19.064a19.981,19.981,0,0,1-3.336-4.1h-11.66V494.651l28.827-12.995,28.827,12.995v26.21h-11.6a19.947,19.947,0,0,1-3.336,4.1H606.3V492Z" transform="translate(-540.45 -477.16)"/><path class="a" d="M84.88,3.2V8.933l6.737,3.038V6.232Z" transform="translate(-29.895 -1.127)"/><path class="a" d="M581.541,536.523a17.911,17.911,0,1,1,17.911-17.909,17.912,17.912,0,0,1-17.911,17.909Zm0-30.783a12.894,12.894,0,1,0,0-.032Z" transform="translate(-548.614 -485.451)"/><circle class="a" cx="2.513" cy="2.513" r="2.513" transform="translate(10.08 16.143)"/><g transform="translate(83.037 2.123)"><path class="b" d="M680.532,487.643a11.66,11.66,0,0,1,5.694-1.386,10.871,10.871,0,0,1,8.246,3.615l.22.24,4.269-4.017-.2-.233a14.9,14.9,0,0,0-5.558-4.036,18.532,18.532,0,0,0-7.249-1.386,18.254,18.254,0,0,0-8.836,2.151,16.12,16.12,0,0,0-6.225,5.947,17.335,17.335,0,0,0,0,17.108,16.006,16.006,0,0,0,6.2,5.947,18.255,18.255,0,0,0,8.836,2.144,18.676,18.676,0,0,0,7.268-1.386,14.9,14.9,0,0,0,5.584-4.029l.2-.233-4.269-4.068-.227.24a10.772,10.772,0,0,1-8.24,3.66,11.659,11.659,0,0,1-5.694-1.386,10.045,10.045,0,0,1-3.887-3.848,11.8,11.8,0,0,1,0-11.194A10.046,10.046,0,0,1,680.532,487.643Z" transform="translate(-668.635 -480.438)"/><path class="b" d="M186.843,3.98H180.3V36.37h23.139V30.734h-16.6Z" transform="translate(-146.54 -3.525)"/><rect class="b" width="6.543" height="32.39" transform="translate(59.723 0.455)"/><path class="b" d="M789.962,487.643a11.658,11.658,0,0,1,5.694-1.386,10.845,10.845,0,0,1,8.24,3.615l.227.24,4.269-4.017-.2-.233a14.9,14.9,0,0,0-5.558-4.036,18.53,18.53,0,0,0-7.249-1.386,18.251,18.251,0,0,0-8.835,2.151,16.07,16.07,0,0,0-6.225,5.947,17.334,17.334,0,0,0,0,17.108,15.915,15.915,0,0,0,6.2,5.947,18.255,18.255,0,0,0,8.836,2.144,18.677,18.677,0,0,0,7.281-1.386,14.893,14.893,0,0,0,5.584-4.029l.2-.233-4.269-4.068-.227.24a10.772,10.772,0,0,1-8.24,3.66,11.658,11.658,0,0,1-5.694-1.386,10,10,0,0,1-3.887-3.848,11.8,11.8,0,0,1,0-11.194A10.048,10.048,0,0,1,789.962,487.643Z" transform="translate(-707.177 -480.438)"/><path class="b" d="M305.355,18.516,319.01,3.98H311.5l-15.23,15.8V3.98H289.73V36.37h6.543v-8.3l4.69-4.82L312.034,36.37h7.722Z" transform="translate(-185.082 -3.525)"/></g><g transform="translate(83.352 39.651)"><path class="b" d="M671.076,540.342v.486h1.639v.842H671.1v4.794h-1.024V541.67h-.958v-.842h.958v-.5a1.782,1.782,0,0,1,.492-1.328,1.845,1.845,0,0,1,1.367-.492,2.593,2.593,0,0,1,.648.084,1.7,1.7,0,0,1,.511.246l-.311.777a1.3,1.3,0,0,0-.784-.265C671.381,539.35,671.076,539.681,671.076,540.342Z" transform="translate(-669.12 -538.417)"/><path class="b" d="M676.6,547.391a2.656,2.656,0,0,1-1.043-1.03,2.887,2.887,0,0,1-.382-1.484,2.922,2.922,0,0,1,.382-1.483,2.593,2.593,0,0,1,1.043-1.017,3.24,3.24,0,0,1,3.019,0,2.67,2.67,0,0,1,1.043,1.017,3.115,3.115,0,0,1,0,2.967,2.745,2.745,0,0,1-1.043,1.03A3.238,3.238,0,0,1,676.6,547.391Zm2.488-.771a1.772,1.772,0,0,0,.648-.706,2.134,2.134,0,0,0,.246-1.036,2.172,2.172,0,0,0-.246-1.036,1.738,1.738,0,0,0-.648-.693,2.054,2.054,0,0,0-1.943,0,1.794,1.794,0,0,0-.68.693,2.1,2.1,0,0,0-.246,1.036,2.06,2.06,0,0,0,.246,1.036,1.827,1.827,0,0,0,.68.706A2.055,2.055,0,0,0,679.093,546.62Z" transform="translate(-671.254 -539.649)"/><path class="b" d="M688.869,546.733a1.538,1.538,0,0,1-.551.3,2.38,2.38,0,0,1-.648.1,1.807,1.807,0,0,1-1.3-.453,1.757,1.757,0,0,1-.466-1.3v-3.1h-.959v-.842h.959V540.21h1.023v1.231h1.613v.842h-1.613v3.051a.971.971,0,0,0,.227.7.828.828,0,0,0,.648.246,1.21,1.21,0,0,0,.8-.266Z" transform="translate(-674.696 -539.017)"/><path class="b" d="M693.095,547.391a2.721,2.721,0,0,1-1.049-1.03,2.953,2.953,0,0,1-.376-1.484,2.985,2.985,0,0,1,.376-1.483,2.64,2.64,0,0,1,1.049-1.017,3.241,3.241,0,0,1,3.019,0,2.592,2.592,0,0,1,1.037,1.017,2.924,2.924,0,0,1,.382,1.483,2.887,2.887,0,0,1-.382,1.484,2.684,2.684,0,0,1-1.036,1.03A3.238,3.238,0,0,1,693.095,547.391Zm2.481-.771a1.789,1.789,0,0,0,.648-.706,2.134,2.134,0,0,0,.24-1.036,2.164,2.164,0,0,0-.24-1.036,1.746,1.746,0,0,0-.648-.693,2.042,2.042,0,0,0-1.943,0,1.8,1.8,0,0,0-.68.693,2.1,2.1,0,0,0-.253,1.036,2.071,2.071,0,0,0,.253,1.037,1.829,1.829,0,0,0,.68.706A2.042,2.042,0,0,0,695.576,546.62Z" transform="translate(-677.062 -539.649)"/><path class="b" d="M707.987,542.044v4.872a2.914,2.914,0,0,1-.732,2.19,3.057,3.057,0,0,1-2.189.706,5.362,5.362,0,0,1-1.522-.22,2.938,2.938,0,0,1-1.166-.648l.486-.784a3.036,3.036,0,0,0,.972.531,3.609,3.609,0,0,0,1.2.2,2.016,2.016,0,0,0,1.464-.466,1.944,1.944,0,0,0,.473-1.425v-.447a2.29,2.29,0,0,1-.887.648,3.012,3.012,0,0,1-1.147.214,3.106,3.106,0,0,1-1.457-.344,2.528,2.528,0,0,1-1.03-.971,2.908,2.908,0,0,1,0-2.837,2.5,2.5,0,0,1,1.03-.959,3.1,3.1,0,0,1,1.457-.343,2.977,2.977,0,0,1,1.186.233,2.177,2.177,0,0,1,.9.693v-.875Zm-1.943,4.275a1.727,1.727,0,0,0,.693-.648,1.863,1.863,0,0,0,.246-.952,1.717,1.717,0,0,0-.544-1.3,2.183,2.183,0,0,0-2.792,0,1.716,1.716,0,0,0-.544,1.3,1.856,1.856,0,0,0,.246.952,1.727,1.727,0,0,0,.693.648A2.267,2.267,0,0,0,706.044,546.319Z" transform="translate(-680.729 -539.634)"/><path class="b" d="M715.673,542.261a2.9,2.9,0,0,1,1.3-.252V543h-.233a1.749,1.749,0,0,0-1.3.493,1.988,1.988,0,0,0-.473,1.412v2.805H713.95v-5.636h.978v.946A1.781,1.781,0,0,1,715.673,542.261Z" transform="translate(-684.909 -539.65)"/><path class="b" d="M724.1,542.585a2.213,2.213,0,0,1,.648,1.71v3.4h-.965v-.745a1.607,1.607,0,0,1-.732.6,2.689,2.689,0,0,1-1.121.207,2.358,2.358,0,0,1-1.516-.454,1.574,1.574,0,0,1,0-2.4,2.693,2.693,0,0,1,1.723-.447h1.613v-.207a1.3,1.3,0,0,0-.382-1.011,1.607,1.607,0,0,0-1.127-.349,3.007,3.007,0,0,0-.978.168,2.388,2.388,0,0,0-.8.44l-.427-.764a3.047,3.047,0,0,1,1.043-.538,4.344,4.344,0,0,1,1.3-.188A2.552,2.552,0,0,1,724.1,542.585Zm-1.017,4.126a1.422,1.422,0,0,0,.615-.738v-.784h-1.574c-.862,0-1.3.292-1.3.875a.791.791,0,0,0,.33.648,1.518,1.518,0,0,0,.913.246A1.9,1.9,0,0,0,723.086,546.712Z" transform="translate(-686.991 -539.65)"/><path class="b" d="M730.746,540.294v.486h1.639v.842h-1.619v4.794h-1.017v-4.794h-.959v-.842h.959v-.5a1.8,1.8,0,0,1,.486-1.328,1.871,1.871,0,0,1,1.373-.492,2.58,2.58,0,0,1,.648.084,1.613,1.613,0,0,1,.505.246l-.3.778a1.3,1.3,0,0,0-.79-.266Q730.747,539.3,730.746,540.294Zm3.472-.791a.664.664,0,0,1,.492-1.133.69.69,0,0,1,.5.181.691.691,0,0,1-.991.952Zm0,1.3h1.017v5.636h-1.017Z" transform="translate(-690.136 -538.369)"/><path class="b" d="M745.145,542.585a2.216,2.216,0,0,1,.648,1.71v3.4h-.965v-.745a1.608,1.608,0,0,1-.732.6,2.708,2.708,0,0,1-1.121.207,2.339,2.339,0,0,1-1.516-.453,1.464,1.464,0,0,1-.57-1.2,1.491,1.491,0,0,1,.544-1.2,2.7,2.7,0,0,1,1.723-.447h1.613v-.207a1.3,1.3,0,0,0-.382-1.011,1.607,1.607,0,0,0-1.127-.35,2.979,2.979,0,0,0-.978.169,2.48,2.48,0,0,0-.81.44l-.421-.765a3.053,3.053,0,0,1,1.043-.538,4.361,4.361,0,0,1,1.3-.188A2.552,2.552,0,0,1,745.145,542.585Zm-1.017,4.126a1.415,1.415,0,0,0,.648-.739v-.784H743.2c-.862,0-1.3.292-1.3.874a.791.791,0,0,0,.33.648,1.516,1.516,0,0,0,.913.246,1.892,1.892,0,0,0,.978-.246Z" transform="translate(-694.398 -539.649)"/><path class="b" d="M760.45,542.674a2.455,2.455,0,0,1,.648,1.827v3.239h-1.024v-3.122a1.724,1.724,0,0,0-.395-1.237,1.485,1.485,0,0,0-1.127-.415,1.755,1.755,0,0,0-1.3.486,1.9,1.9,0,0,0-.48,1.386v2.9H755.76V542.1h.978v.856a1.941,1.941,0,0,1,.836-.648,2.906,2.906,0,0,1,1.192-.233A2.333,2.333,0,0,1,760.45,542.674Z" transform="translate(-699.635 -539.674)"/><path class="b" d="M766.5,539.5A.664.664,0,0,1,767,538.37a.692.692,0,0,1,.5.181.691.691,0,0,1-.991.952Zm0,1.3h1.017v5.636H766.5Z" transform="translate(-703.351 -538.369)"/><path class="b" d="M775.722,545.246h-4.573a1.776,1.776,0,0,0,.648,1.192,2.129,2.129,0,0,0,1.393.453,2.091,2.091,0,0,0,1.626-.648l.564.648a2.519,2.519,0,0,1-.952.648,3.326,3.326,0,0,1-1.3.234,3.393,3.393,0,0,1-1.587-.363,2.64,2.64,0,0,1-1.068-1.03,2.924,2.924,0,0,1-.376-1.49,2.973,2.973,0,0,1,.369-1.477,2.547,2.547,0,0,1,1-1.024,2.881,2.881,0,0,1,1.457-.369,2.8,2.8,0,0,1,1.438.369,2.588,2.588,0,0,1,.991,1.024,3.189,3.189,0,0,1,.357,1.509A2.126,2.126,0,0,1,775.722,545.246Zm-3.99-1.944a1.81,1.81,0,0,0-.583,1.173h3.621a1.807,1.807,0,0,0-.583-1.166,1.737,1.737,0,0,0-1.224-.453A1.771,1.771,0,0,0,771.732,543.3Z" transform="translate(-704.686 -539.655)"/><path class="b" d="M782.579,542.262a2.871,2.871,0,0,1,1.3-.253V543h-.233a1.743,1.743,0,0,0-1.3.493,1.945,1.945,0,0,0-.473,1.412v2.8H780.85v-5.636h.978v.946A1.8,1.8,0,0,1,782.579,542.262Z" transform="translate(-708.472 -539.65)"/><path class="b" d="M792.432,542.065V547.7h-.972v-.849a1.943,1.943,0,0,1-.81.648,2.51,2.51,0,0,1-1.1.24,2.463,2.463,0,0,1-1.775-.648,2.416,2.416,0,0,1-.648-1.834V542.02h1.017v3.129a1.732,1.732,0,0,0,.4,1.237,1.463,1.463,0,0,0,1.127.421,1.672,1.672,0,0,0,1.3-.492,1.943,1.943,0,0,0,.466-1.38V542.02Z" transform="translate(-710.68 -539.655)"/><path class="b" d="M798.8,547.389a2.754,2.754,0,0,1-1.062-1.03,2.886,2.886,0,0,1-.382-1.483,2.921,2.921,0,0,1,.382-1.484,2.674,2.674,0,0,1,1.063-1.017,3.13,3.13,0,0,1,1.561-.376,2.924,2.924,0,0,1,1.367.311,2.143,2.143,0,0,1,.933.894l-.777.5a1.79,1.79,0,0,0-.647-.609,1.878,1.878,0,0,0-.875-.2,1.946,1.946,0,0,0-.991.246,1.747,1.747,0,0,0-.693.693,2.333,2.333,0,0,0,0,2.086,1.757,1.757,0,0,0,.693.7,2,2,0,0,0,.991.24,1.872,1.872,0,0,0,.875-.2,1.827,1.827,0,0,0,.648-.6l.777.486a2.233,2.233,0,0,1-.933.9,2.923,2.923,0,0,1-1.367.311,3.13,3.13,0,0,1-1.561-.363Z" transform="translate(-714.287 -539.647)"/><path class="b" d="M812.037,541.454a2.456,2.456,0,0,1,.648,1.827v3.239h-1.03V543.4a1.726,1.726,0,0,0-.4-1.237,1.482,1.482,0,0,0-1.127-.415,1.757,1.757,0,0,0-1.3.486,1.9,1.9,0,0,0-.479,1.386v2.9H807.34v-7.91h1.017v3.051a2.17,2.17,0,0,1,.835-.648,3.006,3.006,0,0,1,1.166-.207A2.33,2.33,0,0,1,812.037,541.454Z" transform="translate(-717.802 -538.454)"/><path class="b" d="M818.935,547.392a2.725,2.725,0,0,1-1.05-1.03,2.888,2.888,0,0,1-.375-1.484,2.922,2.922,0,0,1,.375-1.483,2.644,2.644,0,0,1,1.05-1.017,3.237,3.237,0,0,1,3.012,0,2.62,2.62,0,0,1,1.043,1.017,2.922,2.922,0,0,1,.376,1.483,2.889,2.889,0,0,1-.376,1.484,2.7,2.7,0,0,1-1.043,1.03A3.24,3.24,0,0,1,818.935,547.392Zm2.481-.771a1.769,1.769,0,0,0,.648-.706,2.063,2.063,0,0,0,.246-1.037,2.1,2.1,0,0,0-.246-1.036,1.734,1.734,0,0,0-.648-.693,2.042,2.042,0,0,0-1.943,0,1.71,1.71,0,0,0-.647.693,2.092,2.092,0,0,0-.253,1.036,2.065,2.065,0,0,0,.253,1.037,1.743,1.743,0,0,0,.647.706A2.041,2.041,0,0,0,821.416,546.621Z" transform="translate(-721.384 -539.65)"/><path class="b" d="M837.3,542.671a2.48,2.48,0,0,1,.648,1.833v3.239h-1.024v-3.129a1.783,1.783,0,0,0-.375-1.237,1.4,1.4,0,0,0-1.082-.414,1.613,1.613,0,0,0-1.231.486,1.945,1.945,0,0,0-.46,1.387v2.9h-1.043v-3.123a1.813,1.813,0,0,0-.376-1.237,1.412,1.412,0,0,0-1.082-.414,1.633,1.633,0,0,0-1.237.486,1.947,1.947,0,0,0-.453,1.387v2.9H828.56V542.1h.978v.842a2.031,2.031,0,0,1,.809-.647,2.754,2.754,0,0,1,1.14-.227,2.5,2.5,0,0,1,1.166.266,1.835,1.835,0,0,1,.79.777,2.137,2.137,0,0,1,.887-.764,2.833,2.833,0,0,1,1.3-.279A2.3,2.3,0,0,1,837.3,542.671Z" transform="translate(-725.276 -539.671)"/><path class="b" d="M846.375,547.392a2.718,2.718,0,0,1-1.05-1.03,3.116,3.116,0,0,1,0-2.967,2.64,2.64,0,0,1,1.05-1.017,3.236,3.236,0,0,1,3.012,0,2.666,2.666,0,0,1,1.043,1.017,2.919,2.919,0,0,1,.376,1.483,2.889,2.889,0,0,1-.376,1.484,2.748,2.748,0,0,1-1.043,1.03A3.239,3.239,0,0,1,846.375,547.392Zm2.481-.771a1.767,1.767,0,0,0,.647-.706,2.132,2.132,0,0,0,.247-1.037,2.164,2.164,0,0,0-.247-1.036,1.733,1.733,0,0,0-.647-.693,1.885,1.885,0,0,0-.972-.246,1.945,1.945,0,0,0-.978.246,1.793,1.793,0,0,0-.68.693,2.169,2.169,0,0,0-.246,1.036,2.132,2.132,0,0,0,.246,1.037,1.83,1.83,0,0,0,.68.706,1.978,1.978,0,0,0,.978.246,1.94,1.94,0,0,0,.985-.246Z" transform="translate(-731.048 -539.65)"/><path class="b" d="M856.118,546.405a2.809,2.809,0,0,1-1-.472l.421-.8a3.087,3.087,0,0,0,.907.421,3.6,3.6,0,0,0,1.076.161c.894,0,1.341-.252,1.341-.764a.519.519,0,0,0-.182-.408,1.175,1.175,0,0,0-.453-.214c-.182-.046-.441-.1-.771-.156a7.955,7.955,0,0,1-1.115-.246,1.711,1.711,0,0,1-.738-.466,1.327,1.327,0,0,1-.3-.927,1.458,1.458,0,0,1,.647-1.231,2.9,2.9,0,0,1,1.685-.466,4.787,4.787,0,0,1,1.127.136,3.13,3.13,0,0,1,.92.376l-.434.81a2.93,2.93,0,0,0-1.626-.447,1.95,1.95,0,0,0-.991.207.649.649,0,0,0-.337.564.557.557,0,0,0,.188.441,1.287,1.287,0,0,0,.473.233c.188.052.453.1.8.168a8.415,8.415,0,0,1,1.1.253,1.571,1.571,0,0,1,.713.453,1.224,1.224,0,0,1,.3.887,1.394,1.394,0,0,1-.648,1.218,3.063,3.063,0,0,1-1.781.453A4.538,4.538,0,0,1,856.118,546.405Zm2.034-7.715h1.3l-1.814,1.386h-.959Z" transform="translate(-734.631 -538.482)"/><path class="b" d="M865.138,547.393a2.733,2.733,0,0,1-1.056-1.03,2.89,2.89,0,0,1-.383-1.483,2.922,2.922,0,0,1,.383-1.483,2.658,2.658,0,0,1,1.056-1.017,3.174,3.174,0,0,1,1.542-.369,2.951,2.951,0,0,1,1.367.311,2.165,2.165,0,0,1,.927.894l-.777.5a1.722,1.722,0,0,0-.648-.609,1.88,1.88,0,0,0-.874-.2,1.978,1.978,0,0,0-1,.246,1.722,1.722,0,0,0-.687.693,2.281,2.281,0,0,0,0,2.085,1.742,1.742,0,0,0,.687.7,2.044,2.044,0,0,0,1,.24,1.881,1.881,0,0,0,.874-.2,1.762,1.762,0,0,0,.648-.6l.777.486a2.255,2.255,0,0,1-.927.9,2.951,2.951,0,0,1-1.367.311A3.17,3.17,0,0,1,865.138,547.393Z" transform="translate(-737.652 -539.651)"/><path class="b" d="M873.544,539.5a.664.664,0,0,1,.492-1.133.707.707,0,0,1,.5.181.673.673,0,0,1,0,.946.72.72,0,0,1-.992,0Zm0,1.3h1.024v5.636h-1.024Z" transform="translate(-741.051 -538.369)"/></g></svg>